<?xml version="1.0" encoding="UTF-8"?>
<svg width="43px" height="42px" viewBox="0 0 43 42" version="1.1" xmlns="http://www.w3.org/2000/svg" xmlns:xlink="http://www.w3.org/1999/xlink">
    <!-- Generator: Sketch 52.6 (67491) - http://www.bohemiancoding.com/sketch -->
    <title>github-logo</title>
    <desc>Created with Sketch.</desc>
    <g id="Page-1" stroke="none" stroke-width="1" fill="none" fill-rule="evenodd">
        <g id="Artboard" transform="translate(-1162.000000, -331.000000)" fill="#FFFFFF">
            <g id="github-logo" transform="translate(1162.000000, 331.000000)">
                <path d="M40.1159194,10.7212198 C38.1933298,7.42301727 35.5854597,4.81182575 32.2916228,2.88705618 C28.9972956,0.96218844 25.4008724,0 21.4998039,0 C17.5992256,0 14.0016258,0.962482957 10.707985,2.88705618 C7.41385396,4.81172758 4.80608192,7.42301727 2.88349227,10.7212198 C0.961196773,14.0193241 0,17.6208796 0,21.525788 C0,26.2164689 1.36683495,30.4344494 4.10119121,34.1808092 C6.83525331,37.9274636 10.3672568,40.5200024 14.6969075,41.95872 C15.2008911,42.0523765 15.5739763,41.9865028 15.8165552,41.7627677 C16.0592321,41.5387381 16.1804235,41.2581612 16.1804235,40.922215 C16.1804235,40.8661585 16.175619,40.3618465 16.1663041,39.4086899 C16.1566951,38.4555334 16.1521847,37.6240125 16.1521847,36.91452 L15.5082819,37.0260439 C15.0977412,37.1013422 14.5798343,37.1332483 13.9545612,37.1242164 C13.3295823,37.1154791 12.6807769,37.0498998 12.0090276,36.9279696 C11.336984,36.8071193 10.7119071,36.5268369 10.1333064,36.0877114 C9.55499993,35.6485859 9.14445919,35.0737861 8.90178225,34.3641954 L8.62184583,33.7192022 C8.43525423,33.2897958 8.14149257,32.8127758 7.74016865,32.2899092 C7.33884473,31.7665517 6.93301045,31.4117564 6.52246971,31.2249341 L6.32646518,31.0844493 C6.19586087,30.9910873 6.07466948,30.8784835 5.96259685,30.7478159 C5.85062228,30.6171483 5.76678843,30.4863826 5.71080115,30.3554205 C5.65471581,30.2243603 5.70119212,30.1168614 5.85072033,30.0325312 C6.00024855,29.9482011 6.2704779,29.9072632 6.662585,29.9072632 L7.22226175,29.9910043 C7.595543,30.0659099 8.05726651,30.289645 8.6080206,30.6635839 C9.15848052,31.0372284 9.61098722,31.5229858 9.96563872,32.1206598 C10.3951034,32.8869942 10.91252,33.470924 11.5193594,33.872744 C12.1257086,34.2745639 12.7370584,34.4751303 13.3528205,34.4751303 C13.9685825,34.4751303 14.5004127,34.4284002 14.9485071,34.3354309 C15.3961112,34.2419707 15.8160649,34.1014859 16.208172,33.9147618 C16.3761339,32.6622774 16.8334451,31.7000889 17.5797134,31.0275093 C16.516053,30.9155927 15.5597588,30.7470305 14.7103405,30.5229028 C13.8614125,30.2984805 12.9841476,29.9342606 12.0791342,29.4292614 C11.1736306,28.9249494 10.4224597,28.2987071 9.82542538,27.5516146 C9.22829304,26.8041294 8.73823271,25.8227973 8.35593073,24.6085019 C7.97343266,23.3937157 7.7821346,21.9924018 7.7821346,20.4041675 C7.7821346,18.1427645 8.51948028,16.2183876 9.9938775,14.6299569 C9.30320422,12.929806 9.36840833,11.0238855 10.1896859,8.91239191 C10.730929,8.74402611 11.5335769,8.87037409 12.5972372,9.29065046 C13.6610937,9.71112318 14.4400131,10.071318 14.9347799,10.3699587 C15.4295467,10.6685012 15.8259681,10.9214916 16.1246323,11.1266721 C17.8606304,10.6410129 19.6521254,10.3981342 21.4996078,10.3981342 C23.3470902,10.3981342 25.1389774,10.6410129 26.8750735,11.1266721 L27.938832,10.4542888 C28.6662745,10.0056406 29.5253018,9.59449427 30.5138549,9.22075166 C31.5029963,8.84720539 32.2593639,8.74432063 32.7821734,8.91268643 C33.6216885,11.0242782 33.6965016,12.9301005 33.0056322,14.6302514 C34.4799314,16.2186821 35.2175712,18.1435498 35.2175712,20.404462 C35.2175712,21.9926963 35.0255868,23.398428 34.6436771,24.6225406 C34.261277,25.8468495 33.7670005,26.8271999 33.1606513,27.5656533 C32.5536158,28.3040084 31.7976404,28.9253421 30.892627,29.4295559 C29.9874175,29.9341624 29.1098585,30.2983823 28.2609304,30.5228046 C27.4116102,30.7472269 26.455316,30.9158872 25.3916556,31.0280001 C26.361775,31.8685529 26.8469328,33.1953539 26.8469328,35.0078142 L26.8469328,40.9214296 C26.8469328,41.2573758 26.9636139,41.5378546 27.197172,41.7619824 C27.430436,41.9857174 27.7988147,42.0515912 28.3027983,41.9578364 C32.6330374,40.5193151 36.1650408,37.9266782 38.8990049,34.1800238 C41.6326748,30.433664 43,26.2156835 43,21.5250026 C42.9990195,17.6205851 42.0373325,14.0193241 40.1159194,10.7212198 Z" id="Path"></path>
            </g>
        </g>
    </g>
</svg>