<?xml version="1.0" encoding="UTF-8"?>
<svg width="220px" height="23px" viewBox="0 0 220 23" version="1.1" xmlns="http://www.w3.org/2000/svg" xmlns:xlink="http://www.w3.org/1999/xlink">
    <!-- Generator: Sketch 52.6 (67491) - http://www.bohemiancoding.com/sketch -->
    <title>webuxmotion</title>
    <desc>Created with Sketch.</desc>
    <g id="Page-1" stroke="none" stroke-width="1" fill="none" fill-rule="evenodd">
        <g id="Artboard" transform="translate(-42.000000, -30.000000)" fill="#3D405B">
            <path d="M42.0439453,36.4433594 L47.8154297,36.4433594 L50.3203125,46.2431641 L53.484375,36.4433594 L58.8603516,36.4433594 L62.1416016,46.2431641 L64.6464844,36.4433594 L70.3740234,36.4433594 L64.6464844,52 L59.34375,52 L56.1943359,42.6396484 L53.1474609,52 L47.8154297,52 L42.0439453,36.4433594 Z M89.0507812,45.7011719 L77.0976562,45.7011719 C77.2050787,46.6582079 77.4638651,47.3710914 77.8740234,47.8398438 C78.4501982,48.5136752 79.2021438,48.8505859 80.1298828,48.8505859 C80.7158232,48.8505859 81.2724583,48.704103 81.7998047,48.4111328 C82.1220719,48.225585 82.4687481,47.8984398 82.8398438,47.4296875 L88.7138672,47.9716797 C87.8154252,49.5341875 86.7314517,50.6547818 85.4619141,51.3334961 C84.1923765,52.0122104 82.3711056,52.3515625 79.9980469,52.3515625 C77.9374897,52.3515625 76.3164122,52.0610381 75.1347656,51.4799805 C73.9531191,50.8989229 72.974125,49.9760805 72.1977539,48.7114258 C71.4213828,47.446771 71.0332031,45.9599695 71.0332031,44.2509766 C71.0332031,41.8193238 71.8120039,39.85157 73.3696289,38.3476562 C74.9272539,36.8437425 77.0781113,36.0917969 79.8222656,36.0917969 C82.0488393,36.0917969 83.8066342,36.4287076 85.0957031,37.1025391 C86.3847721,37.7763706 87.3662076,38.7529233 88.0400391,40.0322266 C88.7138706,41.3115298 89.0507812,42.9765522 89.0507812,45.0273438 L89.0507812,45.7011719 Z M82.9863281,42.8447266 C82.86914,41.6923771 82.5590845,40.86719 82.0561523,40.3691406 C81.5532201,39.8710913 80.8916057,39.6220703 80.0712891,39.6220703 C79.1240187,39.6220703 78.3671903,39.9980431 77.8007812,40.75 C77.4394513,41.2187523 77.2099614,41.9169875 77.1123047,42.8447266 L82.9863281,42.8447266 Z M91.5263672,30.5253906 L97.546875,30.5253906 L97.546875,37.9667969 C98.1425811,37.3417938 98.8188439,36.8730484 99.5756836,36.5605469 C100.332523,36.2480453 101.169917,36.0917969 102.087891,36.0917969 C103.982431,36.0917969 105.549798,36.7729424 106.790039,38.1352539 C108.03028,39.4975654 108.650391,41.4531123 108.650391,44.0019531 C108.650391,45.7011804 108.36719,47.1977474 107.800781,48.4916992 C107.234372,49.785651 106.450689,50.7524382 105.449707,51.3920898 C104.448725,52.0317415 103.337897,52.3515625 102.117188,52.3515625 C101.07226,52.3515625 100.115239,52.1269554 99.2460938,51.6777344 C98.5917936,51.3261701 97.8789101,50.666997 97.1074219,49.7001953 L97.1074219,52 L91.5263672,52 L91.5263672,30.5253906 Z M97.5029297,44.1777344 C97.5029297,45.5156317 97.754392,46.4848603 98.2573242,47.0854492 C98.7602564,47.6860382 99.3974571,47.9863281 100.168945,47.9863281 C100.88184,47.9863281 101.479978,47.6909209 101.963379,47.1000977 C102.44678,46.5092744 102.688477,45.515632 102.688477,44.1191406 C102.688477,42.8886657 102.451663,41.9853544 101.978027,41.4091797 C101.504392,40.8330049 100.930667,40.5449219 100.256836,40.5449219 C99.446285,40.5449219 98.7846705,40.8452118 98.2719727,41.4458008 C97.7592748,42.0463897 97.5029297,42.9570251 97.5029297,44.1777344 Z M127.898438,52 L122.332031,52 L122.332031,49.4804688 C121.501949,50.5156302 120.664555,51.2529275 119.819824,51.6923828 C118.975093,52.1318381 117.937506,52.3515625 116.707031,52.3515625 C115.066398,52.3515625 113.77979,51.8608448 112.847168,50.8793945 C111.914546,49.8979443 111.448242,48.386729 111.448242,46.3457031 L111.448242,36.4433594 L117.439453,36.4433594 L117.439453,44.9980469 C117.439453,45.9746143 117.620115,46.6679667 117.981445,47.078125 C118.342775,47.4882833 118.850583,47.6933594 119.504883,47.6933594 C120.217777,47.6933594 120.801267,47.4199246 121.255371,46.8730469 C121.709475,46.3261691 121.936523,45.3447336 121.936523,43.9287109 L121.936523,36.4433594 L127.898438,36.4433594 L127.898438,52 Z M130.168945,36.4433594 L137.244141,36.4433594 L139.719727,40.7792969 L142.59082,36.4433594 L149.167969,36.4433594 L143.865234,43.8554688 L149.548828,52 L142.59082,52 L139.719727,46.9902344 L136.335938,52 L129.875977,52 L135.530273,43.8554688 L130.168945,36.4433594 Z M151.570312,36.4433594 L157.136719,36.4433594 L157.136719,38.7138672 C157.937504,37.7665968 158.745601,37.0927754 159.561035,36.6923828 C160.376469,36.2919902 161.360346,36.0917969 162.512695,36.0917969 C163.752936,36.0917969 164.734371,36.3115212 165.457031,36.7509766 C166.179691,37.1904319 166.770506,37.8447222 167.229492,38.7138672 C168.166997,37.6982371 169.021481,37.007326 169.792969,36.6411133 C170.564457,36.2749005 171.516596,36.0917969 172.649414,36.0917969 C174.319344,36.0917969 175.623042,36.5873974 176.560547,37.5786133 C177.498052,38.5698292 177.966797,40.1201066 177.966797,42.2294922 L177.966797,52 L171.990234,52 L171.990234,43.1376953 C171.990234,42.4345668 171.853517,41.9121111 171.580078,41.5703125 C171.179685,41.0332004 170.681644,40.7646484 170.085938,40.7646484 C169.382809,40.7646484 168.816408,41.0185521 168.386719,41.5263672 C167.957029,42.0341822 167.742188,42.8496038 167.742188,43.9726562 L167.742188,52 L161.765625,52 L161.765625,43.4306641 C161.765625,42.7470669 161.726563,42.2832043 161.648438,42.0390625 C161.521484,41.6484355 161.301759,41.3334973 160.989258,41.0942383 C160.676756,40.8549793 160.310549,40.7353516 159.890625,40.7353516 C159.207028,40.7353516 158.64551,40.994138 158.206055,41.5117188 C157.766599,42.0292995 157.546875,42.8789003 157.546875,44.0605469 L157.546875,52 L151.570312,52 L151.570312,36.4433594 Z M180.793945,44.265625 C180.793945,41.8925663 181.594719,39.9370194 183.196289,38.3989258 C184.79786,36.8608322 186.960924,36.0917969 189.685547,36.0917969 C192.800797,36.0917969 195.154289,36.9951082 196.746094,38.8017578 C198.025397,40.2568432 198.665039,42.0488175 198.665039,44.1777344 C198.665039,46.5703245 197.87159,48.5307541 196.284668,50.059082 C194.697746,51.58741 192.502944,52.3515625 189.700195,52.3515625 C187.200183,52.3515625 185.178719,51.7168032 183.635742,50.4472656 C181.741201,48.8749921 180.793945,46.8144659 180.793945,44.265625 Z M186.770508,44.2509766 C186.770508,45.6377022 187.051267,46.6630826 187.612793,47.3271484 C188.174319,47.9912143 188.879879,48.3232422 189.729492,48.3232422 C190.588871,48.3232422 191.294431,47.996097 191.846191,47.3417969 C192.397952,46.6874967 192.673828,45.6377025 192.673828,44.1923828 C192.673828,42.8447198 192.395511,41.8413119 191.838867,41.1821289 C191.282224,40.5229459 190.593754,40.1933594 189.773438,40.1933594 C188.904293,40.1933594 188.186526,40.5278287 187.620117,41.1967773 C187.053708,41.865726 186.770508,42.8837822 186.770508,44.2509766 Z M208.728516,30.5253906 L208.728516,36.4433594 L212.009766,36.4433594 L212.009766,40.7939453 L208.728516,40.7939453 L208.728516,46.3164062 C208.728516,46.9804721 208.791992,47.4199208 208.918945,47.6347656 C209.114259,47.9667985 209.456052,48.1328125 209.944336,48.1328125 C210.383791,48.1328125 210.999019,48.0058606 211.790039,47.7519531 L212.229492,51.8681641 C210.754875,52.1904313 209.377936,52.3515625 208.098633,52.3515625 C206.61425,52.3515625 205.520511,52.1611347 204.817383,51.7802734 C204.114254,51.3994122 203.59424,50.8208047 203.257324,50.0444336 C202.920408,49.2680625 202.751953,48.0107509 202.751953,46.2724609 L202.751953,40.7939453 L200.554688,40.7939453 L200.554688,36.4433594 L202.751953,36.4433594 L202.751953,33.5869141 L208.728516,30.5253906 Z M215.071289,30.5253906 L221.033203,30.5253906 L221.033203,34.5830078 L215.071289,34.5830078 L215.071289,30.5253906 Z M215.071289,36.4433594 L221.033203,36.4433594 L221.033203,52 L215.071289,52 L215.071289,36.4433594 Z M224.109375,44.265625 C224.109375,41.8925663 224.910148,39.9370194 226.511719,38.3989258 C228.113289,36.8608322 230.276354,36.0917969 233.000977,36.0917969 C236.116227,36.0917969 238.469719,36.9951082 240.061523,38.8017578 C241.340827,40.2568432 241.980469,42.0488175 241.980469,44.1777344 C241.980469,46.5703245 241.18702,48.5307541 239.600098,50.059082 C238.013176,51.58741 235.818373,52.3515625 233.015625,52.3515625 C230.515613,52.3515625 228.494148,51.7168032 226.951172,50.4472656 C225.056631,48.8749921 224.109375,46.8144659 224.109375,44.265625 Z M230.085938,44.2509766 C230.085938,45.6377022 230.366696,46.6630826 230.928223,47.3271484 C231.489749,47.9912143 232.195308,48.3232422 233.044922,48.3232422 C233.904301,48.3232422 234.609861,47.996097 235.161621,47.3417969 C235.713382,46.6874967 235.989258,45.6377025 235.989258,44.1923828 C235.989258,42.8447198 235.71094,41.8413119 235.154297,41.1821289 C234.597653,40.5229459 233.909184,40.1933594 233.088867,40.1933594 C232.219722,40.1933594 231.501956,40.5278287 230.935547,41.1967773 C230.369138,41.865726 230.085938,42.8837822 230.085938,44.2509766 Z M244.851562,36.4433594 L250.40332,36.4433594 L250.40332,38.9775391 C251.233403,37.9423776 252.073238,37.2026389 252.922852,36.7583008 C253.772465,36.3139626 254.807611,36.0917969 256.02832,36.0917969 C257.678719,36.0917969 258.97021,36.5825146 259.902832,37.5639648 C260.835454,38.5454151 261.301758,40.0615132 261.301758,42.1123047 L261.301758,52 L255.310547,52 L255.310547,43.4453125 C255.310547,42.4687451 255.129885,41.7778341 254.768555,41.3725586 C254.407225,40.9672831 253.899417,40.7646484 253.245117,40.7646484 C252.522457,40.7646484 251.936526,41.0380832 251.487305,41.5849609 C251.038084,42.1318387 250.813477,43.1132742 250.813477,44.5292969 L250.813477,52 L244.851562,52 L244.851562,36.4433594 Z" id="webuxmotion"></path>
        </g>
    </g>
</svg>