<?xml version="1.0" encoding="UTF-8"?>
<svg width="946px" height="308px" viewBox="0 0 946 308" version="1.1" xmlns="http://www.w3.org/2000/svg" xmlns:xlink="http://www.w3.org/1999/xlink">
    <!-- Generator: Sketch 52.6 (67491) - http://www.bohemiancoding.com/sketch -->
    <title>Group 3</title>
    <desc>Created with Sketch.</desc>
    <g id="Page-1" stroke="none" stroke-width="1" fill="none" fill-rule="evenodd">
        <g id="Artboard" transform="translate(-42.000000, -95.000000)">
            <g id="Group-3" transform="translate(28.000000, 19.000000)">
                <path d="M15.234375,220 L15.234375,76.8359375 L88.9648438,76.8359375 C102.636787,76.8359375 113.085901,78.0078008 120.3125,80.3515625 C127.539099,82.6953242 133.365863,87.0409839 137.792969,93.3886719 C142.220074,99.7363599 144.433594,107.467402 144.433594,116.582031 C144.433594,124.524779 142.740902,131.376924 139.355469,137.138672 C135.970035,142.900419 131.315134,147.571597 125.390625,151.152344 C121.614564,153.431001 116.438835,155.319003 109.863281,156.816406 C115.136745,158.574228 118.977853,160.332022 121.386719,162.089844 C123.014331,163.261725 125.374333,165.76821 128.466797,169.609375 C131.55926,173.45054 133.626297,176.41275 134.667969,178.496094 L156.054688,220 L106.054688,220 L82.421875,176.25 C79.4270684,170.585909 76.7578242,166.907561 74.4140625,165.214844 C71.2239424,163.001291 67.6106973,161.894531 63.5742188,161.894531 L59.6679688,161.894531 L59.6679688,220 L15.234375,220 Z M59.6679688,134.84375 L78.3203125,134.84375 C80.3385518,134.84375 84.2447627,134.192715 90.0390625,132.890625 C92.9687646,132.304685 95.3613188,130.807304 97.2167969,128.398438 C99.0722749,125.989571 100,123.222672 100,120.097656 C100,115.475237 98.5351709,111.927096 95.6054688,109.453125 C92.6757666,106.979154 87.1745195,105.742188 79.1015625,105.742188 L59.6679688,105.742188 L59.6679688,134.84375 Z M277.734375,178.007812 L198.046875,178.007812 C198.763024,184.388053 200.488268,189.140609 203.222656,192.265625 C207.063821,196.757835 212.076792,199.003906 218.261719,199.003906 C222.167988,199.003906 225.878889,198.027354 229.394531,196.074219 C231.542979,194.837233 233.854154,192.656266 236.328125,189.53125 L275.488281,193.144531 C269.498668,203.56125 262.272178,211.031878 253.808594,215.556641 C245.34501,220.081403 233.203204,222.34375 217.382812,222.34375 C203.645765,222.34375 192.838581,220.40692 184.960938,216.533203 C177.083294,212.659486 170.556667,206.507204 165.380859,198.076172 C160.205052,189.64514 157.617188,179.73313 157.617188,168.339844 C157.617188,152.128825 162.809193,139.010467 173.193359,128.984375 C183.577526,118.958283 197.916575,113.945312 216.210938,113.945312 C231.054762,113.945312 242.773395,116.191384 251.367188,120.683594 C259.96098,125.175804 266.503884,131.686155 270.996094,140.214844 C275.488304,148.743532 277.734375,159.843682 277.734375,173.515625 L277.734375,178.007812 Z M237.304688,158.964844 C236.523434,151.282514 234.456397,145.781267 231.103516,142.460938 C227.750634,139.140608 223.339871,137.480469 217.871094,137.480469 C211.555958,137.480469 206.510436,139.986954 202.734375,145 C200.325509,148.125016 198.795576,152.779917 198.144531,158.964844 L237.304688,158.964844 Z M332.226562,149.882812 L294.238281,145.878906 C295.67058,139.238248 297.737617,134.013691 300.439453,130.205078 C303.14129,126.396465 307.031225,123.092462 312.109375,120.292969 C315.755227,118.274729 320.768197,116.712245 327.148438,115.605469 C333.528678,114.498692 340.42965,113.945312 347.851562,113.945312 C359.765685,113.945312 369.335901,114.612624 376.5625,115.947266 C383.789099,117.281908 389.811174,120.065083 394.628906,124.296875 C398.01434,127.226577 400.683584,131.376926 402.636719,136.748047 C404.589854,142.119167 405.566406,147.246069 405.566406,152.128906 L405.566406,197.929688 C405.566406,202.812524 405.875648,206.637356 406.494141,209.404297 C407.112633,212.171238 408.463531,215.703104 410.546875,220 L373.242188,220 C371.744784,217.330716 370.768231,215.296231 370.3125,213.896484 C369.856769,212.496738 369.401044,210.299494 368.945312,207.304688 C363.736953,212.317733 358.561224,215.898427 353.417969,218.046875 C346.386684,220.911473 338.216192,222.34375 328.90625,222.34375 C316.536396,222.34375 307.145214,219.479195 300.732422,213.75 C294.319629,208.020805 291.113281,200.957073 291.113281,192.558594 C291.113281,184.68095 293.424456,178.20315 298.046875,173.125 C302.669294,168.04685 311.197854,164.270846 323.632812,161.796875 C338.541741,158.802068 348.209613,156.70248 352.636719,155.498047 C357.063824,154.293614 361.751277,152.714854 366.699219,150.761719 C366.699219,145.878882 365.690114,142.460947 363.671875,140.507812 C361.653636,138.554678 358.105494,137.578125 353.027344,137.578125 C346.516895,137.578125 341.634131,138.619781 338.378906,140.703125 C335.839831,142.330737 333.78907,145.390603 332.226562,149.882812 Z M366.699219,170.78125 C361.230441,172.734385 355.533884,174.459628 349.609375,175.957031 C341.536418,178.105479 336.425792,180.221344 334.277344,182.304688 C332.063791,184.453136 330.957031,186.894518 330.957031,189.628906 C330.957031,192.753922 332.047515,195.309235 334.228516,197.294922 C336.409516,199.280609 339.615864,200.273438 343.847656,200.273438 C348.274762,200.273438 352.392559,199.199229 356.201172,197.050781 C360.009785,194.902333 362.711581,192.281917 364.306641,189.189453 C365.901701,186.09699 366.699219,182.076848 366.699219,177.128906 L366.699219,170.78125 Z M506.738281,179.472656 L544.53125,183.769531 C542.447906,191.647175 539.029972,198.466768 534.277344,204.228516 C529.524716,209.990263 523.453813,214.46613 516.064453,217.65625 C508.675093,220.84637 499.283911,222.441406 487.890625,222.441406 C476.887966,222.441406 467.724646,221.416026 460.400391,219.365234 C453.076135,217.314443 446.77737,213.994164 441.503906,209.404297 C436.230442,204.81443 432.096369,199.427114 429.101562,193.242188 C426.106756,187.057261 424.609375,178.854218 424.609375,168.632812 C424.609375,157.955676 426.432273,149.069046 430.078125,141.972656 C432.747409,136.764297 436.393206,132.09312 441.015625,127.958984 C445.638044,123.824849 450.390601,120.748708 455.273438,118.730469 C463.020872,115.540349 472.949158,113.945312 485.058594,113.945312 C501.985762,113.945312 514.892534,116.972626 523.779297,123.027344 C532.66606,129.082062 538.899722,137.93614 542.480469,149.589844 L505.078125,154.570312 C503.906244,150.143207 501.774104,146.806652 498.681641,144.560547 C495.589177,142.314442 491.438828,141.191406 486.230469,141.191406 C479.654915,141.191406 474.332703,143.551409 470.263672,148.271484 C466.194641,152.99156 464.160156,160.136671 464.160156,169.707031 C464.160156,178.23572 466.178365,184.71352 470.214844,189.140625 C474.251322,193.56773 479.3945,195.78125 485.644531,195.78125 C490.852891,195.78125 495.231102,194.446628 498.779297,191.777344 C502.327492,189.10806 504.98046,185.006538 506.738281,179.472656 Z M610.742188,76.8359375 L610.742188,116.289062 L632.617188,116.289062 L632.617188,145.292969 L610.742188,145.292969 L610.742188,182.109375 C610.742188,186.53648 611.16536,189.466139 612.011719,190.898438 C613.313809,193.11199 615.592432,194.21875 618.847656,194.21875 C621.777358,194.21875 625.87888,193.372404 631.152344,191.679688 L634.082031,219.121094 C624.251253,221.269542 615.071657,222.34375 606.542969,222.34375 C596.647086,222.34375 589.355492,221.074231 584.667969,218.535156 C579.980445,215.996081 576.513683,212.138698 574.267578,206.962891 C572.021473,201.787083 570.898438,193.405006 570.898438,181.816406 L570.898438,145.292969 L556.25,145.292969 L556.25,116.289062 L570.898438,116.289062 L570.898438,97.2460938 L610.742188,76.8359375 Z" id="React" fill="#F2CC8F"></path>
                <g id="Group-2" transform="translate(0.000000, 144.000000)" fill="#3D405B">
                    <path d="M14.84375,76.8359375 L59.0820312,76.8359375 L59.0820312,126.933594 L107.421875,126.933594 L107.421875,76.8359375 L151.855469,76.8359375 L151.855469,220 L107.421875,220 L107.421875,162.089844 L59.0820312,162.089844 L59.0820312,220 L14.84375,220 L14.84375,76.8359375 Z M175.683594,148.515625 C175.683594,125.143112 182.193945,106.94668 195.214844,93.9257812 C208.235742,80.9048828 226.367071,74.3945312 249.609375,74.3945312 C273.437619,74.3945312 291.796811,80.7909517 304.6875,93.5839844 C317.578189,106.377017 324.023438,124.29676 324.023438,147.34375 C324.023438,164.075604 321.20771,177.79617 315.576172,188.505859 C309.944633,199.215548 301.806694,207.548798 291.162109,213.505859 C280.517525,219.46292 267.252684,222.441406 251.367188,222.441406 C235.221273,222.441406 221.858777,219.869817 211.279297,214.726562 C200.699817,209.583308 192.122429,201.445368 185.546875,190.3125 C178.971321,179.179632 175.683594,165.247479 175.683594,148.515625 Z M219.921875,148.710938 C219.921875,163.164135 222.607395,173.548146 227.978516,179.863281 C233.349636,186.178417 240.657506,189.335938 249.902344,189.335938 C259.4076,189.335938 266.764297,186.243521 271.972656,180.058594 C277.181016,173.873667 279.785156,162.773518 279.785156,146.757812 C279.785156,133.281183 277.067084,123.434276 271.630859,117.216797 C266.194634,110.999318 258.821661,107.890625 249.511719,107.890625 C240.592403,107.890625 233.431017,111.048146 228.027344,117.363281 C222.623671,123.678417 219.921875,134.127531 219.921875,148.710938 Z M443.164062,161.503906 L481.933594,173.222656 C479.329414,184.095106 475.227893,193.177047 469.628906,200.46875 C464.02992,207.760453 457.08012,213.2617 448.779297,216.972656 C440.478474,220.683612 429.915429,222.539062 417.089844,222.539062 C401.52987,222.539062 388.818409,220.276715 378.955078,215.751953 C369.091748,211.227191 360.579463,203.268286 353.417969,191.875 C346.256475,180.481714 342.675781,165.898526 342.675781,148.125 C342.675781,124.426965 348.974546,106.214256 361.572266,93.4863281 C374.169985,80.7583999 391.992072,74.3945312 415.039062,74.3945312 C433.073007,74.3945312 447.249297,78.0403281 457.568359,85.3320312 C467.887421,92.6237344 475.55336,103.821539 480.566406,118.925781 L441.503906,127.617188 C440.136712,123.255187 438.704435,120.065114 437.207031,118.046875 C434.733061,114.661441 431.705747,112.057301 428.125,110.234375 C424.544253,108.411449 420.540387,107.5 416.113281,107.5 C406.087189,107.5 398.404975,111.536418 393.066406,119.609375 C389.029928,125.598988 387.011719,135.006446 387.011719,147.832031 C387.011719,163.717527 389.420549,174.60609 394.238281,180.498047 C399.056014,186.390003 405.826779,189.335938 414.550781,189.335938 C423.014365,189.335938 429.410786,186.959659 433.740234,182.207031 C438.069683,177.454403 441.210928,170.553431 443.164062,161.503906 Z" id="HOC"></path>
                    <path d="M561.574219,199.003906 L521.730469,199.003906 C522.088543,202.194026 522.951165,204.570305 524.318359,206.132812 C526.238942,208.378917 528.745427,209.501953 531.837891,209.501953 C533.791025,209.501953 535.646476,209.013677 537.404297,208.037109 C538.478521,207.418617 539.634108,206.328133 540.871094,204.765625 L560.451172,206.572266 C557.456365,211.780625 553.84312,215.515939 549.611328,217.77832 C545.379536,220.040701 539.308633,221.171875 531.398438,221.171875 C524.529914,221.171875 519.126322,220.20346 515.1875,218.266602 C511.248678,216.329743 507.985365,213.253602 505.397461,209.038086 C502.809557,204.82257 501.515625,199.866565 501.515625,194.169922 C501.515625,186.064413 504.111628,179.505233 509.303711,174.492188 C514.495794,169.479142 521.665319,166.972656 530.8125,166.972656 C538.234412,166.972656 544.093729,168.095692 548.390625,170.341797 C552.687521,172.587902 555.958973,175.843078 558.205078,180.107422 C560.451183,184.371766 561.574219,189.921841 561.574219,196.757812 L561.574219,199.003906 Z M541.359375,189.482422 C540.968748,185.641257 539.93523,182.890633 538.258789,181.230469 C536.582348,179.570304 534.376967,178.740234 531.642578,178.740234 C528.48501,178.740234 525.962249,179.993477 524.074219,182.5 C522.869786,184.062508 522.104819,186.389958 521.779297,189.482422 L541.359375,189.482422 Z M563.625,168.144531 L587.208984,168.144531 L595.460938,182.597656 L605.03125,168.144531 L626.955078,168.144531 L609.279297,192.851562 L628.224609,220 L605.03125,220 L595.460938,203.300781 L584.181641,220 L562.648438,220 L581.496094,192.851562 L563.625,168.144531 Z M652.931641,184.941406 L633.9375,182.939453 C634.653649,179.619124 635.687168,177.006845 637.038086,175.102539 C638.389004,173.198233 640.333972,171.546231 642.873047,170.146484 C644.695973,169.137365 647.202458,168.356123 650.392578,167.802734 C653.582698,167.249346 657.033185,166.972656 660.744141,166.972656 C666.701202,166.972656 671.48631,167.306312 675.099609,167.973633 C678.712909,168.640954 681.723946,170.032542 684.132812,172.148438 C685.825529,173.613289 687.160151,175.688463 688.136719,178.374023 C689.113286,181.059584 689.601562,183.623035 689.601562,186.064453 L689.601562,208.964844 C689.601562,211.406262 689.756183,213.318678 690.06543,214.702148 C690.374676,216.085619 691.050125,217.851552 692.091797,220 L673.439453,220 C672.690751,218.665358 672.202475,217.648115 671.974609,216.948242 C671.746744,216.248369 671.518881,215.149747 671.291016,213.652344 C668.686836,216.158867 666.098971,217.949213 663.527344,219.023438 C660.011701,220.455736 655.926456,221.171875 651.271484,221.171875 C645.086558,221.171875 640.390967,219.739598 637.18457,216.875 C633.978174,214.010402 632.375,210.478537 632.375,206.279297 C632.375,202.340475 633.530587,199.101575 635.841797,196.5625 C638.153006,194.023425 642.417287,192.135423 648.634766,190.898438 C656.08923,189.401034 660.923166,188.35124 663.136719,187.749023 C665.350271,187.146807 667.693998,186.357427 670.167969,185.380859 C670.167969,182.939441 669.663417,181.230474 668.654297,180.253906 C667.645177,179.277339 665.871106,178.789062 663.332031,178.789062 C660.076807,178.789062 657.635425,179.309891 656.007812,180.351562 C654.738275,181.165369 653.712895,182.695301 652.931641,184.941406 Z M670.167969,195.390625 C667.43358,196.367192 664.585301,197.229814 661.623047,197.978516 C657.586568,199.05274 655.031255,200.110672 653.957031,201.152344 C652.850255,202.226568 652.296875,203.447259 652.296875,204.814453 C652.296875,206.376961 652.842117,207.654617 653.932617,208.647461 C655.023117,209.640304 656.626292,210.136719 658.742188,210.136719 C660.95574,210.136719 663.014639,209.599615 664.918945,208.525391 C666.823252,207.451167 668.17415,206.140958 668.97168,204.594727 C669.76921,203.048495 670.167969,201.038424 670.167969,198.564453 L670.167969,195.390625 Z M701.662109,168.144531 L720.216797,168.144531 L720.216797,175.712891 C722.886081,172.555323 725.579739,170.309251 728.297852,168.974609 C731.015964,167.639967 734.295554,166.972656 738.136719,166.972656 C742.270854,166.972656 745.542306,167.705071 747.951172,169.169922 C750.360038,170.634773 752.329419,172.815741 753.859375,175.712891 C756.984391,172.327457 759.832669,170.02442 762.404297,168.803711 C764.975924,167.583002 768.149721,166.972656 771.925781,166.972656 C777.492215,166.972656 781.837875,168.624658 784.962891,171.928711 C788.087906,175.232764 789.650391,180.400355 789.650391,187.431641 L789.650391,220 L769.728516,220 L769.728516,190.458984 C769.728516,188.115223 769.272791,186.373704 768.361328,185.234375 C767.026686,183.444001 765.366546,182.548828 763.380859,182.548828 C761.037098,182.548828 759.149096,183.395174 757.716797,185.087891 C756.284498,186.780607 755.568359,189.498679 755.568359,193.242188 L755.568359,220 L735.646484,220 L735.646484,191.435547 C735.646484,189.15689 735.516277,187.610681 735.255859,186.796875 C734.83268,185.494785 734.100266,184.444991 733.058594,183.647461 C732.016922,182.849931 730.796231,182.451172 729.396484,182.451172 C727.117827,182.451172 725.246101,183.313793 723.78125,185.039062 C722.316399,186.764332 721.583984,189.596334 721.583984,193.535156 L721.583984,220 L701.662109,220 L701.662109,168.144531 Z M801.613281,239.726562 L801.613281,168.144531 L820.216797,168.144531 L820.216797,175.810547 C822.788424,172.587875 825.148427,170.406907 827.296875,169.267578 C830.194025,167.737623 833.400373,166.972656 836.916016,166.972656 C843.849644,166.972656 849.212546,169.625625 853.004883,174.931641 C856.797219,180.237657 858.693359,186.796836 858.693359,194.609375 C858.693359,203.23572 856.626323,209.819313 852.492188,214.360352 C848.358052,218.90139 843.133495,221.171875 836.818359,221.171875 C833.758448,221.171875 830.967135,220.651047 828.444336,219.609375 C825.921537,218.567703 823.667328,217.021495 821.681641,214.970703 L821.681641,239.726562 L801.613281,239.726562 Z M821.535156,194.21875 C821.535156,198.320333 822.397778,201.363922 824.123047,203.349609 C825.848316,205.335296 828.029284,206.328125 830.666016,206.328125 C832.977225,206.328125 834.914055,205.375986 836.476562,203.47168 C838.03907,201.567373 838.820312,198.336611 838.820312,193.779297 C838.820312,189.580057 838.006519,186.495778 836.378906,184.526367 C834.751294,182.556956 832.765637,181.572266 830.421875,181.572266 C827.8828,181.572266 825.766936,182.565094 824.074219,184.550781 C822.381502,186.536468 821.535156,189.759092 821.535156,194.21875 Z M868.898438,148.417969 L888.820312,148.417969 L888.820312,220 L868.898438,220 L868.898438,148.417969 Z M959.083984,199.003906 L919.240234,199.003906 C919.598309,202.194026 920.460931,204.570305 921.828125,206.132812 C923.748708,208.378917 926.255193,209.501953 929.347656,209.501953 C931.300791,209.501953 933.156241,209.013677 934.914062,208.037109 C935.988287,207.418617 937.143874,206.328133 938.380859,204.765625 L957.960938,206.572266 C954.966131,211.780625 951.352886,215.515939 947.121094,217.77832 C942.889302,220.040701 936.818399,221.171875 928.908203,221.171875 C922.039679,221.171875 916.636087,220.20346 912.697266,218.266602 C908.758444,216.329743 905.49513,213.253602 902.907227,209.038086 C900.319323,204.82257 899.025391,199.866565 899.025391,194.169922 C899.025391,186.064413 901.621393,179.505233 906.813477,174.492188 C912.00556,169.479142 919.175084,166.972656 928.322266,166.972656 C935.744178,166.972656 941.603494,168.095692 945.900391,170.341797 C950.197287,172.587902 953.468739,175.843078 955.714844,180.107422 C957.960949,184.371766 959.083984,189.921841 959.083984,196.757812 L959.083984,199.003906 Z M938.869141,189.482422 C938.478514,185.641257 937.444995,182.890633 935.768555,181.230469 C934.092114,179.570304 931.886732,178.740234 929.152344,178.740234 C925.994776,178.740234 923.472015,179.993477 921.583984,182.5 C920.379551,184.062508 919.614585,186.389958 919.289062,189.482422 L938.869141,189.482422 Z" id="example"></path>
                </g>
            </g>
        </g>
    </g>
</svg>